<svg width="28" height="28" viewBox="0 0 28 28" fill="none" xmlns="http://www.w3.org/2000/svg">
<path d="M5.99 25.0052C5.99 26.6592 4.64909 28.0001 2.995 28.0001C1.34091 28.0001 0 26.6592 0 25.0052C0 23.3511 1.34091 22.0103 2.995 22.0103C4.64909 22.0103 5.99 23.3511 5.99 25.0052Z" fill="white"/>
<path d="M0 4.46879C0 2.81475 1.34087 1.47388 2.99491 1.47388H24.6952C26.3493 1.47388 27.6901 2.81475 27.6901 4.46879C27.6901 6.12284 26.3493 7.46371 24.6952 7.46371H2.99492C1.34087 7.46371 0 6.12284 0 4.46879Z" fill="white"/>
<path d="M0 14.7369C0 13.0828 1.34087 11.7419 2.99492 11.7419H15.951C17.605 11.7419 18.9459 13.0828 18.9459 14.7369C18.9459 16.3909 17.605 17.7318 15.951 17.7318H2.99492C1.34087 17.7318 0 16.3909 0 14.7369Z" fill="white"/>
</svg>
